<svg width="44" height="44" viewBox="0 0 44 44" fill="none" xmlns="http://www.w3.org/2000/svg">
<path d="M9.37127 18.3958C7.4899 23.1011 7.09111 25.7324 8.0737 30.4095M35.9695 12.5789C36.2933 13.3407 36.3736 13.7076 36.402 14.2952M36.402 19.1853C36.21 22.505 35.909 23.5885 34.0664 26.9771M2.73753 34.451C3.11396 32.6286 3.5489 33.4176 2.46139 30.3375C1.37387 27.2574 2.12791 19.5503 5.59101 13.9748C9.63385 8.13552 16.1548 4.011 19.6742 3.0055C23.1936 2 25.0974 2.04949 29.2048 2.54842C30.2899 2.68023 32.0365 3.22153 33.021 3.0055C34.0055 2.78947 35.8745 1.99998 37.5313 2C38.8209 2.01656 39.908 2.54493 41.1256 3.57895C42.0755 5.22872 42.2184 6.61824 41.4894 8.5816C40.7603 10.545 41.0255 11.4249 41.4894 13.2436C42.0255 15.6304 42.059 16.9187 41.9496 19.1853C41.184 25.2283 39.9391 28.4239 35.5984 33.6283C31.3735 37.4559 28.8672 39.4408 22.8959 41.2154C19.1153 42.2828 17.1094 42.2283 13.6912 41.2154C11.434 40.4968 10.4712 40.5336 9.18085 41.2154C7.04864 42.3968 5.81677 42.2437 3.56595 40.7583C1.91887 39.056 1.69255 37.7014 2.73753 34.451Z" stroke="#E5E5E5" stroke-width="4" stroke-linecap="round" stroke-linejoin="round"/>
</svg>
